<?xml version="1.0" encoding="UTF-8" standalone="no"?>
<!-- Created with Inkscape (http://www.inkscape.org/) -->

<svg
   xmlns:dc="http://purl.org/dc/elements/1.1/"
   xmlns:cc="http://creativecommons.org/ns#"
   xmlns:rdf="http://www.w3.org/1999/02/22-rdf-syntax-ns#"
   xmlns:svg="http://www.w3.org/2000/svg"
   xmlns="http://www.w3.org/2000/svg"
   xmlns:sodipodi="http://sodipodi.sourceforge.net/DTD/sodipodi-0.dtd"
   xmlns:inkscape="http://www.inkscape.org/namespaces/inkscape"
   width="11in"
   height="8.5in"
   viewBox="0 0 990.00003 765.00002"
   id="svg2"
   version="1.1"
   inkscape:version="0.91 r13725"
   sodipodi:docname="layout - bottom half.svg">
  <defs
     id="defs4" />
  <sodipodi:namedview
     id="base"
     pagecolor="#ffffff"
     bordercolor="#666666"
     borderopacity="1.0"
     inkscape:pageopacity="0.0"
     inkscape:pageshadow="2"
     inkscape:zoom="0.45254834"
     inkscape:cx="-138.82451"
     inkscape:cy="435.61292"
     inkscape:document-units="in"
     inkscape:current-layer="layer1"
     showgrid="false"
     inkscape:window-width="1536"
     inkscape:window-height="801"
     inkscape:window-x="-8"
     inkscape:window-y="-8"
     inkscape:window-maximized="1"
     units="in" />
  <metadata
     id="metadata7">
    <rdf:RDF>
      <cc:Work
         rdf:about="">
        <dc:format>image/svg+xml</dc:format>
        <dc:type
           rdf:resource="http://purl.org/dc/dcmitype/StillImage" />
        <dc:title></dc:title>
      </cc:Work>
    </rdf:RDF>
  </metadata>
  <g
     inkscape:label="Layer 1"
     inkscape:groupmode="layer"
     id="layer1"
     transform="translate(0,-287.36217)">
    <text
       xml:space="preserve"
       style="font-style:normal;font-weight:normal;font-size:58.84166336px;line-height:125%;font-family:sans-serif;letter-spacing:0px;word-spacing:0px;fill:#000000;fill-opacity:1;stroke:none;stroke-width:1px;stroke-linecap:butt;stroke-linejoin:miter;stroke-opacity:1"
       x="-1714.7462"
       y="357.16751"
       id="text4136"
       sodipodi:linespacing="125%"><tspan
         sodipodi:role="line"
         id="tspan4138"
         x="-1714.7462"
         y="357.16751" /></text>
    <g
       id="g4489"
       transform="matrix(1.4710416,0,0,1.4710416,-50.367644,-131.19475)">
      <path
         d="m 65.62044,485.28372 q -7.73437,0 -11.99707,5.71289 -4.26269,5.7129 -4.26269,16.08399 0,10.32715 4.26269,16.04004 4.2627,5.71289 11.99707,5.71289 7.77832,0 12.04102,-5.71289 4.26269,-5.71289 4.26269,-16.04004 0,-10.37109 -4.26269,-16.08399 -4.2627,-5.71289 -12.04102,-5.71289 z m 0,-12.26074 q 15.82031,0 24.78516,9.05274 8.96484,9.05273 8.96484,25.00488 0,15.9082 -8.96484,24.96094 -8.96485,9.05273 -24.78516,9.05273 -15.77637,0 -24.78515,-9.05273 -8.96485,-9.05274 -8.96485,-24.96094 0,-15.95215 8.96485,-25.00488 9.00878,-9.05274 24.78515,-9.05274 z"
         style="font-style:normal;font-variant:normal;font-weight:bold;font-stretch:normal;font-size:90px;line-height:125%;font-family:sans-serif;-inkscape-font-specification:'sans-serif Bold';letter-spacing:0px;word-spacing:0px;fill:#009f0d;fill-opacity:1;stroke:none;stroke-width:1px;stroke-linecap:butt;stroke-linejoin:miter;stroke-opacity:1"
         id="path4173"
         inkscape:connector-curvature="0" />
      <path
         d="m 125.31501,474.20951 28.08106,0 q 12.52441,0 19.2041,5.58105 6.72363,5.53711 6.72363,15.82031 0,10.32715 -6.72363,15.90821 -6.67969,5.53711 -19.2041,5.53711 l -11.16211,0 0,22.76367 -16.91895,0 0,-65.61035 z m 16.91895,12.26074 0,18.32519 9.36035,0 q 4.92187,0 7.60254,-2.37304 2.68066,-2.417 2.68066,-6.81153 0,-4.39453 -2.68066,-6.76758 -2.68067,-2.37304 -7.60254,-2.37304 l -9.36035,0 z"
         style="font-style:normal;font-variant:normal;font-weight:bold;font-stretch:normal;font-size:90px;line-height:125%;font-family:sans-serif;-inkscape-font-specification:'sans-serif Bold';letter-spacing:0px;word-spacing:0px;fill:#9f0009;fill-opacity:1;stroke:none;stroke-width:1px;stroke-linecap:butt;stroke-linejoin:miter;stroke-opacity:1"
         id="path4175"
         inkscape:connector-curvature="0" />
      <path
         d="m 557.53548,474.20951 16.9189,0 0,39.33105 q 0,8.12988 2.6367,11.64551 2.6807,3.47168 8.7012,3.47168 6.0645,0 8.7012,-3.47168 2.6806,-3.51563 2.6806,-11.64551 l 0,-39.33105 16.919,0 0,39.33105 q 0,13.93066 -6.9873,20.74219 -6.9873,6.81152 -21.3135,6.81152 -14.2822,0 -21.2695,-6.81152 -6.9873,-6.81153 -6.9873,-20.74219 l 0,-39.33105 z"
         style="font-style:normal;font-variant:normal;font-weight:bold;font-stretch:normal;font-size:90px;line-height:125%;font-family:sans-serif;-inkscape-font-specification:'sans-serif Bold';letter-spacing:0px;word-spacing:0px;fill:#009f0d;fill-opacity:1;stroke:none;stroke-width:1px;stroke-linecap:butt;stroke-linejoin:miter;stroke-opacity:1"
         id="path4185"
         inkscape:connector-curvature="0" />
      <path
         d="m 638.12602,474.20951 17.0068,0 17.4024,48.42773 17.3584,-48.42773 17.0068,0 -24.3017,65.61035 -20.1709,0 -24.3018,-65.61035 z"
         style="font-style:normal;font-variant:normal;font-weight:bold;font-stretch:normal;font-size:90px;line-height:125%;font-family:sans-serif;-inkscape-font-specification:'sans-serif Bold';letter-spacing:0px;word-spacing:0px;fill:#9f0009;fill-opacity:1;stroke:none;stroke-width:1px;stroke-linecap:butt;stroke-linejoin:miter;stroke-opacity:1"
         id="path4187"
         inkscape:connector-curvature="0" />
      <path
         d="m 240.82015,541.00638 -1.31836,0 q -16.21582,0 -25.22461,-8.96484 -9.00879,-8.96485 -9.00879,-24.96094 0,-15.95215 8.96485,-25.00488 9.00879,-9.05274 24.78515,-9.05274 15.95215,0 24.82911,8.96485 8.92089,8.96484 8.92089,25.09277 0,11.07422 -4.74609,19.07226 -4.70215,7.99805 -13.5791,12.04102 l 13.22754,14.76563 -16.12793,0 -10.72266,-11.95313 z m -1.80176,-55.72266 q -7.73437,0 -11.99707,5.71289 -4.26269,5.7129 -4.26269,16.08399 0,10.54687 4.1748,16.17187 4.17481,5.58106 12.08496,5.58106 7.77832,0 12.04102,-5.71289 4.2627,-5.71289 4.2627,-16.04004 0,-10.37109 -4.2627,-16.08399 -4.2627,-5.71289 -12.04102,-5.71289 z"
         style="font-style:normal;font-variant:normal;font-weight:bold;font-stretch:normal;font-size:90px;line-height:125%;font-family:sans-serif;-inkscape-font-specification:'sans-serif Bold';letter-spacing:0px;word-spacing:0px;fill:#009f0d;fill-opacity:1;stroke:none;stroke-width:1px;stroke-linecap:butt;stroke-linejoin:miter;stroke-opacity:1"
         id="path4177"
         inkscape:connector-curvature="0" />
      <path
         d="m 320.13628,503.3013 q 5.31738,0 7.60254,-1.97754 2.3291,-1.97754 2.3291,-6.5039 0,-4.48242 -2.3291,-6.41602 -2.28516,-1.93359 -7.60254,-1.93359 l -7.11914,0 0,16.83105 7.11914,0 z m -7.11914,11.68946 0,24.8291 -16.91894,0 0,-65.61035 25.83984,0 q 12.96387,0 18.98437,4.35058 6.06446,4.35059 6.06446,13.75488 0,6.50391 -3.16407,10.67872 -3.12011,4.1748 -9.44824,6.15234 3.47168,0.79101 6.19629,3.60351 2.76856,2.76856 5.58106,8.4375 l 9.18457,18.63282 -18.01758,0 -7.99805,-16.30371 q -2.41699,-4.92188 -4.92187,-6.72364 -2.46094,-1.80175 -6.5918,-1.80175 l -4.79004,0 z"
         style="font-style:normal;font-variant:normal;font-weight:bold;font-stretch:normal;font-size:90px;line-height:125%;font-family:sans-serif;-inkscape-font-specification:'sans-serif Bold';letter-spacing:0px;word-spacing:0px;fill:#9f0009;fill-opacity:1;stroke:none;stroke-width:1px;stroke-linecap:butt;stroke-linejoin:miter;stroke-opacity:1"
         id="path4179"
         inkscape:connector-curvature="0" />
      <path
         d="m 433.99344,476.27494 0,13.88671 q -5.4053,-2.41699 -10.54686,-3.64746 -5.1416,-1.23047 -9.71191,-1.23047 -6.06445,0 -8.96485,1.66993 -2.90039,1.66992 -2.90039,5.18554 0,2.63672 1.9336,4.13086 1.97754,1.4502 7.11914,2.50489 l 7.20703,1.45019 q 10.94234,2.19727 15.55664,6.67969 4.6143,4.48242 4.6143,12.74414 0,10.85449 -6.46,16.17187 -6.41602,5.27344 -19.64356,5.27344 -6.24023,0 -12.52441,-1.18652 -6.28418,-1.18653 -12.56836,-3.51563 l 0,-14.28222 q 6.28418,3.33984 12.12891,5.05371 5.88867,1.66992 11.33789,1.66992 5.53711,0 8.48144,-1.8457 2.94434,-1.84571 2.94434,-5.27344 0,-3.07617 -2.02149,-4.7461 -1.97754,-1.66992 -7.9541,-2.98828 l -6.54785,-1.45019 q -9.84375,-2.10938 -14.41406,-6.72363 -4.52637,-4.61426 -4.52637,-12.43653 0,-9.7998 6.32812,-15.07324 6.32813,-5.27344 18.19336,-5.27344 5.40528,0 11.11817,0.83496 5.71287,0.79102 11.82127,2.417 z"
         style="font-style:normal;font-variant:normal;font-weight:bold;font-stretch:normal;font-size:90px;line-height:125%;font-family:sans-serif;-inkscape-font-specification:'sans-serif Bold';letter-spacing:0px;word-spacing:0px;fill:#009f0d;fill-opacity:1;stroke:none;stroke-width:1px;stroke-linecap:butt;stroke-linejoin:miter;stroke-opacity:1"
         id="path4181"
         inkscape:connector-curvature="0" />
      <path
         d="m 468.88093,474.20951 60.4687,0 0,12.78808 -21.7529,0 0,52.82227 -16.919,0 0,-52.82227 -21.7968,0 0,-12.78808 z"
         style="font-style:normal;font-variant:normal;font-weight:bold;font-stretch:normal;font-size:90px;line-height:125%;font-family:sans-serif;-inkscape-font-specification:'sans-serif Bold';letter-spacing:0px;word-spacing:0px;fill:#9f0009;fill-opacity:1;stroke:none;stroke-width:1px;stroke-linecap:butt;stroke-linejoin:miter;stroke-opacity:1"
         id="path4183"
         inkscape:connector-curvature="0" />
    </g>
    <g
       id="g5457"
       transform="translate(0,-158.5724)">
      <g
         transform="matrix(1.4710416,0,0,1.4710416,-50.367644,52.897069)"
         id="g4876">
        <g
           transform="translate(-114.18718,182.48287)"
           id="g4878">
          <path
             sodipodi:nodetypes="ccccccssscc"
             inkscape:connector-curvature="0"
             style="fill:#9f0009;fill-opacity:1;stroke:none;stroke-width:1"
             d="m 172.71094,193.03608 0,7.82915 14.14258,0 0,-7.82915 z m 0.57422,7.83111 c -5.072,2.88 -10.85938,8.16309 -10.85938,14.74609 0,14.519 10.68486,36.09375 17.38086,36.09375 6.697,0 17.38281,-21.57475 17.38281,-36.09375 0,-6.583 -5.78737,-11.86609 -10.85937,-14.74609 z"
             id="path4880" />
        </g>
        <g
           id="g4882"
           transform="translate(-27.48821,182.48287)">
          <path
             id="path4884"
             d="m 172.71094,193.03608 0,7.82915 14.14258,0 0,-7.82915 z m 0.57422,7.83111 c -5.072,2.88 -10.85938,8.16309 -10.85938,14.74609 0,14.519 10.68486,36.09375 17.38086,36.09375 6.697,0 17.38281,-21.57475 17.38281,-36.09375 0,-6.583 -5.78737,-11.86609 -10.85937,-14.74609 z"
             style="fill:#9f0009;fill-opacity:1;stroke:none;stroke-width:1"
             inkscape:connector-curvature="0"
             sodipodi:nodetypes="ccccccssscc" />
        </g>
        <g
           style="fill:#009f0d;fill-opacity:1"
           transform="translate(59.21078,182.48287)"
           id="g4886">
          <path
             sodipodi:nodetypes="ccccccssscc"
             inkscape:connector-curvature="0"
             style="fill:#009f0d;fill-opacity:1;stroke:none;stroke-width:1"
             d="m 172.71094,193.03608 0,7.82915 14.14258,0 0,-7.82915 z m 0.57422,7.83111 c -5.072,2.88 -10.85938,8.16309 -10.85938,14.74609 0,14.519 10.68486,36.09375 17.38086,36.09375 6.697,0 17.38281,-21.57475 17.38281,-36.09375 0,-6.583 -5.78737,-11.86609 -10.85937,-14.74609 z"
             id="path4888" />
        </g>
        <g
           style="fill:#009f0d;fill-opacity:1"
           id="g4890"
           transform="translate(145.90972,182.48287)">
          <path
             id="path4892"
             d="m 172.71094,193.03608 0,7.82915 14.14258,0 0,-7.82915 z m 0.57422,7.83111 c -5.072,2.88 -10.85938,8.16309 -10.85938,14.74609 0,14.519 10.68486,36.09375 17.38086,36.09375 6.697,0 17.38281,-21.57475 17.38281,-36.09375 0,-6.583 -5.78737,-11.86609 -10.85937,-14.74609 z"
             style="fill:#009f0d;fill-opacity:1;stroke:none;stroke-width:1"
             inkscape:connector-curvature="0"
             sodipodi:nodetypes="ccccccssscc" />
        </g>
        <g
           transform="translate(232.60871,182.48287)"
           id="g4894">
          <path
             sodipodi:nodetypes="ccccccssscc"
             inkscape:connector-curvature="0"
             style="fill:#9f0009;fill-opacity:1;stroke:none;stroke-width:1"
             d="m 172.71094,193.03608 0,7.82915 14.14258,0 0,-7.82915 z m 0.57422,7.83111 c -5.072,2.88 -10.85938,8.16309 -10.85938,14.74609 0,14.519 10.68486,36.09375 17.38086,36.09375 6.697,0 17.38281,-21.57475 17.38281,-36.09375 0,-6.583 -5.78737,-11.86609 -10.85937,-14.74609 z"
             id="path4896" />
        </g>
        <g
           id="g4898"
           transform="translate(319.30766,182.48287)">
          <path
             id="path4900"
             d="m 172.71094,193.03608 0,7.82915 14.14258,0 0,-7.82915 z m 0.57422,7.83111 c -5.072,2.88 -10.85938,8.16309 -10.85938,14.74609 0,14.519 10.68486,36.09375 17.38086,36.09375 6.697,0 17.38281,-21.57475 17.38281,-36.09375 0,-6.583 -5.78737,-11.86609 -10.85937,-14.74609 z"
             style="fill:#9f0009;fill-opacity:1;stroke:none;stroke-width:1"
             inkscape:connector-curvature="0"
             sodipodi:nodetypes="ccccccssscc" />
        </g>
        <g
           style="fill:#009f0d;fill-opacity:1"
           id="g4902"
           transform="translate(406.00668,182.48287)">
          <path
             id="path4904"
             d="m 172.71094,193.03608 0,7.82915 14.14258,0 0,-7.82915 z m 0.57422,7.83111 c -5.072,2.88 -10.85938,8.16309 -10.85938,14.74609 0,14.519 10.68486,36.09375 17.38086,36.09375 6.697,0 17.38281,-21.57475 17.38281,-36.09375 0,-6.583 -5.78737,-11.86609 -10.85937,-14.74609 z"
             style="fill:#009f0d;fill-opacity:1;stroke:none;stroke-width:1"
             inkscape:connector-curvature="0"
             sodipodi:nodetypes="ccccccssscc" />
        </g>
        <g
           style="fill:#009f0d;fill-opacity:1"
           transform="translate(492.7056,182.48287)"
           id="g4906">
          <path
             sodipodi:nodetypes="ccccccssscc"
             inkscape:connector-curvature="0"
             style="fill:#009f0d;fill-opacity:1;stroke:none;stroke-width:1"
             d="m 172.71094,193.03608 0,7.82915 14.14258,0 0,-7.82915 z m 0.57422,7.83111 c -5.072,2.88 -10.85938,8.16309 -10.85938,14.74609 0,14.519 10.68486,36.09375 17.38086,36.09375 6.697,0 17.38281,-21.57475 17.38281,-36.09375 0,-6.583 -5.78737,-11.86609 -10.85937,-14.74609 z"
             id="path4908" />
        </g>
      </g>
      <path
         sodipodi:nodetypes="cc"
         inkscape:connector-curvature="0"
         id="path5034"
         d="m 170.22756,601.61662 c 36.24438,10.25065 76.09547,15.2916 130.02293,0"
         style="fill:none;fill-rule:evenodd;stroke:#000000;stroke-width:8.82625008;stroke-linecap:butt;stroke-linejoin:miter;stroke-miterlimit:4;stroke-dasharray:none;stroke-opacity:1" />
      <path
         style="fill:none;fill-rule:evenodd;stroke:#000000;stroke-width:8.82625008;stroke-linecap:butt;stroke-linejoin:miter;stroke-miterlimit:4;stroke-dasharray:none;stroke-opacity:1"
         d="m 555.83846,601.61662 c 36.24438,10.25065 76.09547,15.2916 130.02293,0"
         id="path5036"
         inkscape:connector-curvature="0"
         sodipodi:nodetypes="cc" />
      <path
         sodipodi:nodetypes="cc"
         inkscape:connector-curvature="0"
         id="path5038"
         d="m 427.30148,601.61662 c 36.24438,10.25065 76.09547,15.2916 130.02293,0"
         style="fill:none;fill-rule:evenodd;stroke:#000000;stroke-width:8.82625008;stroke-linecap:butt;stroke-linejoin:miter;stroke-miterlimit:4;stroke-dasharray:none;stroke-opacity:1" />
      <path
         style="fill:none;fill-rule:evenodd;stroke:#000000;stroke-width:8.82625008;stroke-linecap:butt;stroke-linejoin:miter;stroke-miterlimit:4;stroke-dasharray:none;stroke-opacity:1"
         d="m 298.76453,601.61662 c 36.24438,10.25065 76.09547,15.2916 130.02292,0"
         id="path5040"
         inkscape:connector-curvature="0"
         sodipodi:nodetypes="cc" />
      <path
         sodipodi:nodetypes="cc"
         inkscape:connector-curvature="0"
         id="path5042"
         d="m 684.37539,601.61662 c 36.24437,10.25065 76.09546,15.2916 130.02292,0"
         style="fill:none;fill-rule:evenodd;stroke:#000000;stroke-width:8.82625008;stroke-linecap:butt;stroke-linejoin:miter;stroke-miterlimit:4;stroke-dasharray:none;stroke-opacity:1" />
      <path
         style="fill:none;fill-rule:evenodd;stroke:#000000;stroke-width:8.82625008;stroke-linecap:butt;stroke-linejoin:miter;stroke-miterlimit:4;stroke-dasharray:none;stroke-opacity:1"
         d="m 41.690604,601.61662 c 36.244376,10.25065 76.095476,15.2916 130.022936,0"
         id="path5044"
         inkscape:connector-curvature="0"
         sodipodi:nodetypes="cc" />
      <path
         sodipodi:nodetypes="cc"
         inkscape:connector-curvature="0"
         id="path5046"
         d="m 812.91237,601.61662 c 36.24437,10.25065 76.09547,15.2916 130.02292,0"
         style="fill:none;fill-rule:evenodd;stroke:#000000;stroke-width:8.82625008;stroke-linecap:butt;stroke-linejoin:miter;stroke-miterlimit:4;stroke-dasharray:none;stroke-opacity:1" />
    </g>
    <g
       id="g5483"
       transform="translate(0,-144.67032)">
      <g
         id="g4954"
         transform="matrix(1.4710416,0,0,1.4710416,36.733877,560.43603)"
         style="fill:#009f0d;fill-opacity:1">
        <path
           id="path4956"
           d="m 172.71094,193.03608 0,7.82915 14.14258,0 0,-7.82915 z m 0.57422,7.83111 c -5.072,2.88 -10.85938,8.16309 -10.85938,14.74609 0,14.519 10.68486,36.09375 17.38086,36.09375 6.697,0 17.38281,-21.57475 17.38281,-36.09375 0,-6.583 -5.78737,-11.86609 -10.85937,-14.74609 z"
           style="fill:#009f0d;fill-opacity:1;stroke:none;stroke-width:1"
           inkscape:connector-curvature="0"
           sodipodi:nodetypes="ccccccssscc" />
      </g>
      <g
         transform="matrix(1.4710416,0,0,1.4710416,164.27162,560.43603)"
         id="g4958"
         style="fill:#009f0d;fill-opacity:1">
        <path
           sodipodi:nodetypes="ccccccssscc"
           inkscape:connector-curvature="0"
           style="fill:#009f0d;fill-opacity:1;stroke:none;stroke-width:1"
           d="m 172.71094,193.03608 0,7.82915 14.14258,0 0,-7.82915 z m 0.57422,7.83111 c -5.072,2.88 -10.85938,8.16309 -10.85938,14.74609 0,14.519 10.68486,36.09375 17.38086,36.09375 6.697,0 17.38281,-21.57475 17.38281,-36.09375 0,-6.583 -5.78737,-11.86609 -10.85937,-14.74609 z"
           id="path4960" />
      </g>
      <g
         id="g4962"
         transform="matrix(1.4710416,0,0,1.4710416,291.80944,560.43603)">
        <path
           id="path4964"
           d="m 172.71094,193.03608 0,7.82915 14.14258,0 0,-7.82915 z m 0.57422,7.83111 c -5.072,2.88 -10.85938,8.16309 -10.85938,14.74609 0,14.519 10.68486,36.09375 17.38086,36.09375 6.697,0 17.38281,-21.57475 17.38281,-36.09375 0,-6.583 -5.78737,-11.86609 -10.85937,-14.74609 z"
           style="fill:#9f0009;fill-opacity:1;stroke:none;stroke-width:1"
           inkscape:connector-curvature="0"
           sodipodi:nodetypes="ccccccssscc" />
      </g>
      <g
         transform="matrix(1.4710416,0,0,1.4710416,419.34721,560.43603)"
         id="g4966">
        <path
           sodipodi:nodetypes="ccccccssscc"
           inkscape:connector-curvature="0"
           style="fill:#9f0009;fill-opacity:1;stroke:none;stroke-width:1"
           d="m 172.71094,193.03608 0,7.82915 14.14258,0 0,-7.82915 z m 0.57422,7.83111 c -5.072,2.88 -10.85938,8.16309 -10.85938,14.74609 0,14.519 10.68486,36.09375 17.38086,36.09375 6.697,0 17.38281,-21.57475 17.38281,-36.09375 0,-6.583 -5.78737,-11.86609 -10.85937,-14.74609 z"
           id="path4968" />
      </g>
      <path
         style="fill:none;fill-rule:evenodd;stroke:#000000;stroke-width:8.82625008;stroke-linecap:butt;stroke-linejoin:miter;stroke-miterlimit:4;stroke-dasharray:none;stroke-opacity:1"
         d="m 170.22756,839.40271 c 36.24438,10.25065 76.09547,15.2916 130.02293,0"
         id="path5048"
         inkscape:connector-curvature="0"
         sodipodi:nodetypes="cc" />
      <path
         sodipodi:nodetypes="cc"
         inkscape:connector-curvature="0"
         id="path5050"
         d="m 555.83846,839.40271 c 36.24438,10.25065 76.09547,15.2916 130.02293,0"
         style="fill:none;fill-rule:evenodd;stroke:#000000;stroke-width:8.82625008;stroke-linecap:butt;stroke-linejoin:miter;stroke-miterlimit:4;stroke-dasharray:none;stroke-opacity:1" />
      <path
         style="fill:none;fill-rule:evenodd;stroke:#000000;stroke-width:8.82625008;stroke-linecap:butt;stroke-linejoin:miter;stroke-miterlimit:4;stroke-dasharray:none;stroke-opacity:1"
         d="m 427.30148,839.40271 c 36.24438,10.25065 76.09547,15.2916 130.02293,0"
         id="path5052"
         inkscape:connector-curvature="0"
         sodipodi:nodetypes="cc" />
      <path
         sodipodi:nodetypes="cc"
         inkscape:connector-curvature="0"
         id="path5054"
         d="m 298.76453,839.40271 c 36.24438,10.25065 76.09547,15.2916 130.02292,0"
         style="fill:none;fill-rule:evenodd;stroke:#000000;stroke-width:8.82625008;stroke-linecap:butt;stroke-linejoin:miter;stroke-miterlimit:4;stroke-dasharray:none;stroke-opacity:1" />
      <path
         style="fill:none;fill-rule:evenodd;stroke:#000000;stroke-width:8.82625008;stroke-linecap:butt;stroke-linejoin:miter;stroke-miterlimit:4;stroke-dasharray:none;stroke-opacity:1"
         d="m 684.37539,839.40271 c 36.24437,10.25065 76.09546,15.2916 130.02292,0"
         id="path5056"
         inkscape:connector-curvature="0"
         sodipodi:nodetypes="cc" />
      <path
         sodipodi:nodetypes="cc"
         inkscape:connector-curvature="0"
         id="path5058"
         d="m 41.690604,839.40271 c 36.244376,10.25065 76.095476,15.2916 130.022936,0"
         style="fill:none;fill-rule:evenodd;stroke:#000000;stroke-width:8.82625008;stroke-linecap:butt;stroke-linejoin:miter;stroke-miterlimit:4;stroke-dasharray:none;stroke-opacity:1" />
      <path
         style="fill:none;fill-rule:evenodd;stroke:#000000;stroke-width:8.82625008;stroke-linecap:butt;stroke-linejoin:miter;stroke-miterlimit:4;stroke-dasharray:none;stroke-opacity:1"
         d="m 812.91237,839.40271 c 36.24437,10.25065 76.09547,15.2916 130.02292,0"
         id="path5060"
         inkscape:connector-curvature="0"
         sodipodi:nodetypes="cc" />
    </g>
    <g
       id="g5533"
       transform="translate(0,-137.00194)">
      <g
         id="g5529">
        <path
           inkscape:connector-curvature="0"
           id="path4189"
           style="font-style:normal;font-variant:normal;font-weight:bold;font-stretch:normal;font-size:90px;line-height:125%;font-family:sans-serif;-inkscape-font-specification:'sans-serif Bold';letter-spacing:0px;word-spacing:0px;fill:#009f0d;fill-opacity:1;stroke:none;stroke-width:1px;stroke-linecap:butt;stroke-linejoin:miter;stroke-opacity:1"
           d="m 232.26173,953.48155 23.85411,0 16.67852,70.14025 16.54922,-70.14025 23.98342,0 16.54922,70.14025 16.67852,-70.14025 23.66024,0 -22.75525,96.51555 -28.70252,0 -17.51893,-73.3725 -17.3249,73.3725 -28.70252,0 -22.94913,-96.51555 z" />
        <path
           style="font-style:normal;font-variant:normal;font-weight:bold;font-stretch:normal;font-size:90px;line-height:125%;font-family:sans-serif;-inkscape-font-specification:'sans-serif Bold';letter-spacing:0px;word-spacing:0px;fill:none;fill-opacity:1;stroke:#9f0009;stroke-width:4.41312504;stroke-linecap:butt;stroke-linejoin:miter;stroke-miterlimit:4;stroke-dasharray:13.2393744, 13.2393744;stroke-dashoffset:0;stroke-opacity:1"
           d="m 257.534,1047.0549 c 7.55678,-1.8196 20.92879,3.7092 24.72424,-2.8634 6.40397,-26.1486 11.91196,-52.52724 18.96455,-78.50935 7.36193,26.93143 13.1469,54.27195 19.85619,81.37275 7.55746,-1.8193 20.93147,3.7088 24.72609,-2.8636 6.89744,-29.2554 13.79489,-58.5109 20.69232,-87.76636 -9.19194,0.14328 -21.09958,-3.15076 -20.00028,10.01793 -5.61467,22.68131 -10.35666,45.58863 -16.62923,68.09953 -7.05063,-25.8435 -12.49079,-52.10137 -18.87071,-78.11746 -7.53185,1.72006 -21.82229,-5.09881 -21.01379,7.15862 -5.80454,23.63306 -10.71158,47.49704 -17.18157,70.95884 -7.09157,-25.8438 -12.58529,-52.10135 -19.01149,-78.11746 -7.7109,0.92136 -23.12084,-4.24041 -15.76314,8.58687 6.50228,27.34769 13.00455,54.69539 19.50682,82.04309 z"
           id="path5136"
           inkscape:connector-curvature="0" />
      </g>
      <g
         id="g5525">
        <path
           inkscape:connector-curvature="0"
           id="path4191"
           style="font-style:normal;font-variant:normal;font-weight:bold;font-stretch:normal;font-size:90px;line-height:125%;font-family:sans-serif;-inkscape-font-specification:'sans-serif Bold';letter-spacing:0px;word-spacing:0px;fill:#9f0009;fill-opacity:1;stroke:none;stroke-width:1px;stroke-linecap:butt;stroke-linejoin:miter;stroke-opacity:1"
           d="m 443.74161,1000.7373 33.4862,49.2598 -25.92269,0 -22.56137,-32.9691 -22.36719,32.9691 -26.05214,0 33.48635,-49.2598 -32.19346,-47.25575 25.98743,0 21.13901,31.09442 21.07444,-31.09442 26.11672,0 -32.1933,47.25575 z" />
        <path
           style="font-style:normal;font-variant:normal;font-weight:bold;font-stretch:normal;font-size:90px;line-height:125%;font-family:sans-serif;-inkscape-font-specification:'sans-serif Bold';letter-spacing:0px;word-spacing:0px;fill:none;fill-opacity:1;stroke:#009f0d;stroke-width:4.41312504;stroke-linecap:butt;stroke-linejoin:miter;stroke-miterlimit:4;stroke-dasharray:13.2393744, 13.2393744;stroke-dashoffset:0;stroke-opacity:1"
           d="m 416.24274,999.0794 c 0.5441,7.1835 -9.1302,14.375 -12.40197,21.5613 -5.98517,8.8047 -11.97034,17.6095 -17.95551,26.4142 8.77321,-0.906 20.49332,3.7482 23.88898,-7.3041 6.31883,-9.3167 12.64215,-18.6304 18.95798,-27.9492 8.04073,11.7519 16.08392,23.5021 24.12565,35.2533 7.53007,-0.8905 25.46554,3.7275 13.84845,-7.2995 -8.84142,-13.0071 -17.68403,-26.0134 -26.52469,-39.0211 10.065,-14.76818 20.12491,-29.53984 30.18796,-44.30936 -8.7875,0.91292 -20.53558,-3.75747 -23.94068,7.30606 -5.89458,8.69386 -11.78427,17.39105 -17.68232,26.08256 -7.56708,-11.12874 -15.13166,-22.25919 -22.69772,-33.38862 -7.53498,0.89644 -25.52082,-3.73296 -13.89559,7.29438 8.02981,11.78669 16.05964,23.57338 24.08946,35.36008 z"
           id="path5138"
           inkscape:connector-curvature="0" />
      </g>
      <g
         id="g5521">
        <path
           inkscape:connector-curvature="0"
           id="path4193"
           style="font-style:normal;font-variant:normal;font-weight:bold;font-stretch:normal;font-size:90px;line-height:125%;font-family:sans-serif;-inkscape-font-specification:'sans-serif Bold';letter-spacing:0px;word-spacing:0px;fill:#009f0d;fill-opacity:1;stroke:none;stroke-width:1px;stroke-linecap:butt;stroke-linejoin:miter;stroke-opacity:1"
           d="m 507.08648,953.48155 27.21574,0 21.97942,34.39134 21.97943,-34.39134 27.28031,0 -36.7831,55.85365 0,40.6619 -24.88855,0 0,-40.6619 -36.78325,-55.85365 z" />
        <path
           style="font-style:normal;font-variant:normal;font-weight:bold;font-stretch:normal;font-size:90px;line-height:125%;font-family:sans-serif;-inkscape-font-specification:'sans-serif Bold';letter-spacing:0px;word-spacing:0px;fill:none;fill-opacity:1;stroke:#9f0009;stroke-width:4.41312504;stroke-linecap:butt;stroke-linejoin:miter;stroke-miterlimit:4;stroke-dasharray:13.2393744, 13.2393744;stroke-dashoffset:0;stroke-opacity:1"
           d="m 546.32647,1007.7189 c 1.14884,12.8156 0.1502,26.2761 0.48556,39.336 8.17138,-1.105 23.09468,4.5419 19.00288,-8.8263 0.917,-10.4338 -1.80597,-21.9594 1.29467,-31.7382 10.99104,-16.68851 21.98209,-33.37699 32.97312,-50.06546 -8.35654,1.51865 -20.80288,-4.43033 -24.17058,6.19754 -6.54319,10.23894 -13.08856,20.47651 -19.63025,30.71641 -7.86194,-12.30581 -15.72778,-24.60913 -23.59126,-36.91395 -6.37898,1.50227 -26.47969,-4.38865 -16.1008,6.14267 9.91222,15.05042 19.82445,30.10085 29.73666,45.15129 z"
           id="path5140"
           inkscape:connector-curvature="0" />
      </g>
      <g
         id="g5516">
        <path
           inkscape:connector-curvature="0"
           id="path4195"
           style="font-style:normal;font-variant:normal;font-weight:bold;font-stretch:normal;font-size:90px;line-height:125%;font-family:sans-serif;-inkscape-font-specification:'sans-serif Bold';letter-spacing:0px;word-spacing:0px;fill:#9f0009;fill-opacity:1;stroke:none;stroke-width:1px;stroke-linecap:butt;stroke-linejoin:miter;stroke-opacity:1"
           d="m 643.28675,953.48155 81.13001,0 0,15.06237 -51.78096,62.64138 53.26774,0 0,18.8118 -84.10372,0 0,-15.0624 51.78096,-62.64135 -50.29403,0 0,-18.8118 z" />
        <g
           id="g5503">
          <path
             inkscape:connector-curvature="0"
             id="path5142"
             d="m 646.22801,969.35115 c 17.86704,0 35.73406,-2e-5 53.60108,0 -18.36439,22.21221 -36.72396,44.42845 -55.08648,66.64215 -4.08303,13.1641 6.51516,11.6469 16.18146,11.0616 20.67886,0 41.35772,0 62.03658,0 3.244,-12.4562 -3.53543,-14.889 -14.71042,-12.9262 -13.95479,0 -27.90956,0 -41.86434,0 18.36508,-22.2125 36.72592,-44.42842 55.08936,-66.64222 4.08302,-13.16402 -6.51517,-11.64684 -16.18146,-11.06154 -19.6886,0 -39.37718,0 -59.06578,0 0,4.30873 0,8.61747 0,12.92621 z"
             style="font-style:normal;font-variant:normal;font-weight:bold;font-stretch:normal;font-size:90px;line-height:125%;font-family:sans-serif;-inkscape-font-specification:'sans-serif Bold';letter-spacing:0px;word-spacing:0px;fill:none;fill-opacity:1;stroke:#009f0d;stroke-width:4.41312504;stroke-linecap:butt;stroke-linejoin:miter;stroke-miterlimit:4;stroke-dasharray:13.2393744, 13.2393744;stroke-dashoffset:0;stroke-opacity:1" />
        </g>
      </g>
    </g>
  </g>
</svg>
